<?xml version="1.0" standalone="no"?>
<!DOCTYPE svg PUBLIC "-//W3C//DTD SVG 20010904//EN"
 "http://www.w3.org/TR/2001/REC-SVG-20010904/DTD/svg10.dtd">
<svg version="1.0" xmlns="http://www.w3.org/2000/svg"
 width="700.000000pt" height="700.000000pt" viewBox="0 0 700.000000 700.000000"
 preserveAspectRatio="xMidYMid meet">
<metadata>
Created by potrace 1.14, written by Peter Selinger 2001-2017
</metadata>
<g transform="translate(0.000000,700.000000) scale(0.100000,-0.100000)"
fill="#000000" stroke="none">
<path d="M2190 6948 c-1 -29 -1 -128 -1 -219 l0 -166 -427 -1 c-235 0 -432 -1
-438 -1 -9 -1 -12 -60 -11 -211 0 -115 -2 -213 -6 -216 -3 -4 -95 -6 -204 -6
-109 0 -205 -1 -215 -4 -14 -4 -16 -28 -16 -215 0 -116 -3 -213 -6 -216 -3 -3
-101 -6 -217 -7 l-212 -1 -1 -435 -1 -435 -180 -2 c-99 -1 -197 -2 -217 -2
l-38 -1 0 -1310 c0 -720 3 -1310 8 -1310 4 -1 102 -1 218 -2 l211 -1 1 -416
c0 -229 1 -426 1 -438 l1 -23 211 1 c116 1 213 -1 215 -4 3 -3 6 -101 7 -218
l2 -214 217 0 218 0 1 -45 c0 -25 1 -123 1 -217 0 -95 3 -173 6 -174 4 0 201
-1 439 -2 l431 0 0 -196 c1 -108 1 -206 1 -218 l1 -23 1310 0 1310 0 1 143 c0
78 1 176 2 217 l2 75 425 2 c234 1 431 2 437 2 10 1 12 51 11 211 0 116 2 213
5 216 3 3 101 6 219 7 l213 2 1 213 c1 117 4 215 7 218 2 3 100 5 216 6 147 0
211 4 212 12 0 6 1 202 2 436 l2 425 218 0 217 0 0 1313 0 1312 -32 1 c-18 0
-116 1 -218 2 l-185 2 -2 420 c-1 231 -2 427 -2 437 -1 14 -22 16 -216 15
l-215 -2 -1 25 c0 14 -1 113 -2 220 l-2 195 -213 2 c-118 1 -216 4 -219 6 -2
3 -5 100 -5 216 -1 187 -3 211 -17 212 -9 0 -206 1 -438 2 l-422 0 0 196 c0
108 0 206 0 219 l-1 22 -1310 0 -1310 0 0 -52z"/>
</g>
</svg>
