<svg width="17" height="17" viewBox="0 0 17 17" fill="none" xmlns="http://www.w3.org/2000/svg">
  <path fill-rule="evenodd" clip-rule="evenodd"
    d="M2 0H0V2V3H1V2H2V3H3V6V7H4V6H6V4H7V3H6H3V2H2V1H3V0H2ZM17 0H15H14V1H15V2H14V3H11H10V4H11V6H13V7H14V6V3H15V2H16V3H17V2V0ZM15 15H16V14H17V15V17H15H14V16H15V15ZM14 14H15V15H14V14ZM14 14H11H10V13H11V11H13V10H14V11V14ZM9 3H8V4H9V3ZM13 8H14V9H13V8ZM3 8H4V9H3V8ZM4 10H3V11V14H2V15H1V14H0V15V17H2H3V16H2V15H3V14H6H7V13H6V11H4V10ZM8 13H9V14H8V13Z"
    fill="black" />
</svg>
